<svg width="196" height="196" viewBox="0 0 196 196" fill="none" xmlns="http://www.w3.org/2000/svg">
<path d="M50.5595 44.2391L37.9199 56.8786L44.2397 63.1984L56.8792 50.5588L50.5595 44.2391Z" fill="#006802"/>
<path d="M94.7972 0.000733315L75.8379 18.96L82.1577 25.2798L101.117 6.3205L94.7972 0.000733315Z" fill="#006802"/>
<path d="M44.2397 63.1984L37.9199 69.5181L44.2397 75.8379L50.5595 69.5181L44.2397 63.1984Z" fill="#006802"/>
<path d="M56.8778 50.5588L44.2383 63.1983L50.558 69.5181L63.1976 56.8785L56.8778 50.5588Z" fill="#31BC2E"/>
<path d="M69.5184 37.9194L56.8789 50.5589L63.1987 56.8787L75.8382 44.2391L69.5184 37.9194Z" fill="#006802"/>
<path d="M82.1577 25.2798L75.8379 31.5996L82.1577 37.9193L88.4774 31.5996L82.1577 25.2798Z" fill="#006802"/>
<path d="M94.7977 12.6402L82.1582 25.2797L94.7977 37.9193L107.437 25.2797L94.7977 12.6402Z" fill="#31BC2E"/>
<path d="M101.117 6.32044L94.7969 12.6402L113.756 31.5995L120.076 25.2797L101.117 6.32044Z" fill="#006802"/>
<path d="M44.2397 75.8379L37.9199 82.1577L50.5595 94.7972L56.8792 88.4774L44.2397 75.8379Z" fill="#006802"/>
<path d="M50.558 69.5182L44.2383 75.838L50.558 82.1577L56.8778 75.838L50.558 69.5182Z" fill="#31BC2E"/>
<path d="M56.8784 63.1984L50.5586 69.5181L63.1981 82.1577L69.5179 75.8379L56.8784 63.1984Z" fill="#0F8611"/>
<path d="M69.5184 50.5588L56.8789 63.1983L63.1987 69.5181L75.8382 56.8785L69.5184 50.5588Z" fill="#31BC2E"/>
<path d="M82.1571 37.9193L69.5176 50.5588L75.8373 56.8786L88.4769 44.239L82.1571 37.9193Z" fill="#006802"/>
<path d="M88.478 31.5995L82.1582 37.9193L94.7977 50.5588L101.118 44.239L88.478 31.5995Z" fill="#31BC2E"/>
<path d="M56.8784 75.8379L50.5586 82.1577L56.8784 88.4774L63.1981 82.1577L56.8784 75.8379Z" fill="#0F8611"/>
<path d="M75.8388 56.8786L63.1992 69.5181L69.519 75.8379L82.1585 63.1984L75.8388 56.8786Z" fill="#0F8611"/>
<path d="M82.1577 50.5588L75.8379 56.8786L82.1577 63.1984L88.4774 56.8786L82.1577 50.5588Z" fill="#006802"/>
<path d="M88.478 44.239L82.1582 50.5588L88.478 56.8786L94.7977 50.5588L88.478 44.239Z" fill="#1B9A1D"/>
<path d="M101.117 31.5995L94.7969 37.9193L101.117 44.239L107.436 37.9193L101.117 31.5995Z" fill="#31BC2E"/>
<path d="M107.437 25.2798L101.117 31.5996L107.437 37.9193L113.757 31.5996L107.437 25.2798Z" fill="#1B9A1D"/>
<path d="M63.1987 82.1577L56.8789 88.4775L63.1987 94.7973L69.5184 88.4775L63.1987 82.1577Z" fill="#006802"/>
<path d="M88.4783 56.8786L63.1992 82.1577L69.519 88.4774L94.7981 63.1984L88.4783 56.8786Z" fill="#B03604"/>
<path d="M94.7963 50.5588L88.4766 56.8786L94.7963 63.1984L101.116 56.8786L94.7963 50.5588Z" fill="#0F8611"/>
<path d="M101.117 44.239L94.7969 50.5588L101.117 56.8786L107.436 50.5588L101.117 44.239Z" fill="#1B9A1D"/>
<path d="M113.757 31.5996L101.117 44.2391L107.437 50.5589L120.076 37.9193L113.757 31.5996Z" fill="#006802"/>
<path d="M69.519 88.4774L63.1992 94.7972L69.519 101.117L75.8388 94.7972L69.519 88.4774Z" fill="#B03604"/>
<path d="M75.8373 82.1577L69.5176 88.4775L75.8373 94.7973L82.1571 88.4775L75.8373 82.1577Z" fill="#D96808"/>
<path d="M88.4774 69.5181L75.8379 82.1577L82.1577 88.4774L94.7972 75.8379L88.4774 69.5181Z" fill="#F98D0C"/>
<path d="M94.7963 63.1984L88.4766 69.5181L94.7963 75.8379L101.116 69.5181L94.7963 63.1984Z" fill="#D96808"/>
<path d="M101.117 56.8787L94.7969 63.1984L120.076 88.4775L126.396 82.1577L101.117 56.8787Z" fill="#722608"/>
<path d="M107.437 50.5588L101.117 56.8786L107.437 63.1984L113.757 56.8786L107.437 50.5588Z" fill="#006802"/>
<path d="M113.757 44.239L107.438 50.5588L113.757 56.8786L120.077 50.5588L113.757 44.239Z" fill="#0F8611"/>
<path d="M120.076 37.9193L113.756 44.2391L139.035 69.5182L145.355 63.1984L120.076 37.9193Z" fill="#006802"/>
<path d="M69.519 101.117L63.1992 107.437L69.519 113.756L75.8388 107.437L69.519 101.117Z" fill="#B03604"/>
<path d="M75.8373 94.7972L69.5176 101.117L75.8373 107.437L82.1571 101.117L75.8373 94.7972Z" fill="#D96808"/>
<path d="M82.1577 88.4774L75.8379 94.7972L94.7972 113.756L101.117 107.437L82.1577 88.4774Z" fill="#FAC07B"/>
<path d="M88.478 82.1577L82.1582 88.4775L88.478 94.7973L94.7977 88.4775L88.478 82.1577Z" fill="#FCA039"/>
<path d="M101.116 69.5181L88.4766 82.1577L94.7963 88.4774L107.436 75.8379L101.116 69.5181Z" fill="#F98D0C"/>
<path d="M113.757 56.8787L107.438 63.1984L113.757 69.5182L120.077 63.1984L113.757 56.8787Z" fill="#0F8611"/>
<path d="M120.076 50.5588L113.756 56.8786L132.715 75.8379L139.035 69.5181L120.076 50.5588Z" fill="#1B9A1D"/>
<path d="M69.519 113.756L63.1992 120.076L75.8388 132.716L82.1585 126.396L69.519 113.756Z" fill="#B03604"/>
<path d="M75.8373 107.437L69.5176 113.757L75.8373 120.076L82.1571 113.757L75.8373 107.437Z" fill="#F98D0C"/>
<path d="M82.1577 101.117L75.8379 107.437L94.7972 126.396L101.117 120.076L82.1577 101.117Z" fill="#FAC07B"/>
<path d="M94.7963 88.4774L88.4766 94.7972L94.7963 101.117L101.116 94.7972L94.7963 88.4774Z" fill="#FAC07B"/>
<path d="M101.117 82.1577L94.7969 88.4775L101.117 94.7973L107.436 88.4775L101.117 82.1577Z" fill="#FCA039"/>
<path d="M107.437 75.8379L101.117 82.1577L107.437 88.4774L113.757 82.1577L107.437 75.8379Z" fill="#F98D0C"/>
<path d="M120.076 63.1984L113.756 69.5181L126.395 82.1577L132.715 75.8379L120.076 63.1984Z" fill="#006802"/>
<path d="M82.1577 113.756L75.8379 120.076L82.1577 126.396L88.4774 120.076L82.1577 113.756Z" fill="#FAC07B"/>
<path d="M101.117 94.7972L94.7969 101.117L101.117 107.437L107.436 101.117L101.117 94.7972Z" fill="#FCA039"/>
<path d="M107.437 88.4774L101.117 94.7972L107.437 101.117L113.757 94.7972L107.437 88.4774Z" fill="#F98D0C"/>
<path d="M113.757 82.1577L107.438 88.4775L113.757 94.7973L120.077 88.4775L113.757 82.1577Z" fill="#D46B08"/>
<path d="M75.8373 132.716L69.5176 139.036L82.1571 151.675L88.4769 145.355L75.8373 132.716Z" fill="#B03604"/>
<path d="M88.4774 120.076L75.8379 132.716L82.1577 139.036L94.7972 126.396L88.4774 120.076Z" fill="#FCA039"/>
<path d="M101.117 107.437L94.7969 113.757L101.117 120.076L107.436 113.757L101.117 107.437Z" fill="#FCA039"/>
<path d="M107.437 101.117L101.117 107.437L107.437 113.756L113.757 107.437L107.437 101.117Z" fill="#F98D0C"/>
<path d="M113.757 94.7972L107.438 101.117L113.757 107.437L120.077 101.117L113.757 94.7972Z" fill="#D46B08"/>
<path d="M120.076 88.4774L113.756 94.7972L120.076 101.117L126.395 94.7972L120.076 88.4774Z" fill="#722608"/>
<path d="M139.035 69.5182L132.715 75.838L139.035 82.1577L145.354 75.838L139.035 69.5182Z" fill="#006802"/>
<path d="M94.7977 126.396L82.1582 139.036L101.118 157.995L113.757 145.355L94.7977 126.396Z" fill="#F98D0C"/>
<path d="M101.117 120.076L94.7969 126.396L101.117 132.716L107.436 126.396L101.117 120.076Z" fill="#FCA039"/>
<path d="M107.437 113.756L101.117 120.076L107.437 126.396L113.757 120.076L107.437 113.756Z" fill="#F98D0C"/>
<path d="M113.757 107.437L107.438 113.757L113.757 120.076L120.077 113.757L113.757 107.437Z" fill="#D46B08"/>
<path d="M120.076 101.117L113.756 107.437L120.076 113.756L126.395 107.437L120.076 101.117Z" fill="#722608"/>
<path d="M82.1577 151.675L75.8379 157.995L88.4774 170.634L94.7972 164.315L82.1577 151.675Z" fill="#B03604"/>
<path d="M88.478 145.355L82.1582 151.675L101.118 170.634L107.437 164.315L88.478 145.355Z" fill="#F98D0C"/>
<path d="M107.437 126.396L101.117 132.716L107.437 139.036L113.757 132.716L107.437 126.396Z" fill="#F98D0C"/>
<path d="M113.757 120.076L107.438 126.396L113.757 132.716L120.077 126.396L113.757 120.076Z" fill="#D46B08"/>
<path d="M120.076 113.756L113.756 120.076L120.076 126.396L126.395 120.076L120.076 113.756Z" fill="#722608"/>
<path d="M113.757 132.716L107.438 139.036L113.757 145.355L120.077 139.036L113.757 132.716Z" fill="#D46B08"/>
<path d="M120.076 126.396L113.756 132.716L120.076 139.036L126.395 132.716L120.076 126.396Z" fill="#722608"/>
<path d="M88.478 170.634L82.1582 176.954L94.7977 189.594L101.118 183.274L88.478 170.634Z" fill="#B03604"/>
<path d="M94.7963 164.315L88.4766 170.634L94.7963 176.954L101.116 170.634L94.7963 164.315Z" fill="#D46B08"/>
<path d="M107.437 151.675L101.117 157.995L107.437 164.315L113.757 157.995L107.437 151.675Z" fill="#F98D0C"/>
<path d="M113.757 145.355L107.438 151.675L113.757 157.995L120.077 151.675L113.757 145.355Z" fill="#D46B08"/>
<path d="M120.076 139.036L113.756 145.355L120.076 151.675L126.395 145.355L120.076 139.036Z" fill="#722608"/>
<path d="M101.117 170.634L94.7969 176.954L101.117 183.274L107.436 176.954L101.117 170.634Z" fill="#F98D0C"/>
<path d="M107.437 164.315L101.117 170.634L107.437 176.954L113.757 170.634L107.437 164.315Z" fill="#D46B08"/>
<path d="M120.077 151.675L107.438 164.315L113.757 170.634L126.397 157.995L120.077 151.675Z" fill="#722608"/>
<path d="M113.756 170.634L94.7969 189.594L101.117 195.913L120.076 176.954L113.756 170.634Z" fill="#722608"/>
</svg>
