<svg width="135" height="143" viewBox="0 0 135 143" fill="none" xmlns="http://www.w3.org/2000/svg">
<path d="M71.5 0H53.625V8.9375H71.5V0Z" fill="#006802"/>
<path d="M134.062 0H107.25V8.9375H134.062V0Z" fill="#006802"/>
<path d="M53.625 8.9375H44.6875V17.875H53.625V8.9375Z" fill="#006802"/>
<path d="M71.5 8.9375H53.625V17.875H71.5V8.9375Z" fill="#31BC2E"/>
<path d="M89.375 8.9375H71.5V17.875H89.375V8.9375Z" fill="#006802"/>
<path d="M107.25 8.9375H98.3125V17.875H107.25V8.9375Z" fill="#006802"/>
<path d="M125.125 8.9375H107.25V26.8125H125.125V8.9375Z" fill="#31BC2E"/>
<path d="M134.062 8.9375H125.125V35.75H134.062V8.9375Z" fill="#006802"/>
<path d="M44.6875 17.875H35.75V35.75H44.6875V17.875Z" fill="#006802"/>
<path d="M53.625 17.875H44.6875V26.8125H53.625V17.875Z" fill="#31BC2E"/>
<path d="M62.5625 17.875H53.625V35.75H62.5625V17.875Z" fill="#0F8611"/>
<path d="M80.4375 17.875H62.5625V26.8125H80.4375V17.875Z" fill="#31BC2E"/>
<path d="M98.3125 17.875H80.4375V26.8125H98.3125V17.875Z" fill="#006802"/>
<path d="M107.25 17.875H98.3125V35.75H107.25V17.875Z" fill="#31BC2E"/>
<path d="M53.625 26.8125H44.6875V35.75H53.625V26.8125Z" fill="#0F8611"/>
<path d="M80.4375 26.8125H62.5625V35.75H80.4375V26.8125Z" fill="#0F8611"/>
<path d="M89.375 26.8125H80.4375V35.75H89.375V26.8125Z" fill="#006802"/>
<path d="M98.3125 26.8125H89.375V35.75H98.3125V26.8125Z" fill="#1B9A1D"/>
<path d="M116.188 26.8125H107.25V35.75H116.188V26.8125Z" fill="#31BC2E"/>
<path d="M125.125 26.8125H116.188V35.75H125.125V26.8125Z" fill="#1B9A1D"/>
<path d="M53.625 35.75H44.6875V44.6875H53.625V35.75Z" fill="#006802"/>
<path d="M89.375 35.75H53.625V44.6875H89.375V35.75Z" fill="#B03604"/>
<path d="M98.3125 35.75H89.375V44.6875H98.3125V35.75Z" fill="#0F8611"/>
<path d="M107.25 35.75H98.3125V44.6875H107.25V35.75Z" fill="#1B9A1D"/>
<path d="M125.125 35.75H107.25V44.6875H125.125V35.75Z" fill="#006802"/>
<path d="M53.625 44.6875H44.6875V53.625H53.625V44.6875Z" fill="#B03604"/>
<path d="M62.5625 44.6875H53.625V53.625H62.5625V44.6875Z" fill="#D96808"/>
<path d="M80.4375 44.6875H62.5625V53.625H80.4375V44.6875Z" fill="#F98D0C"/>
<path d="M89.375 44.6875H80.4375V53.625H89.375V44.6875Z" fill="#D96808"/>
<path d="M98.3125 44.6875H89.375V80.4375H98.3125V44.6875Z" fill="#722608"/>
<path d="M107.25 44.6875H98.3125V53.625H107.25V44.6875Z" fill="#006802"/>
<path d="M116.188 44.6875H107.25V53.625H116.188V44.6875Z" fill="#0F8611"/>
<path d="M125.125 44.6875H116.188V80.4375H125.125V44.6875Z" fill="#006802"/>
<path d="M44.6875 53.625H35.75V62.5625H44.6875V53.625Z" fill="#B03604"/>
<path d="M53.625 53.625H44.6875V62.5625H53.625V53.625Z" fill="#D96808"/>
<path d="M62.5625 53.625H53.625V80.4375H62.5625V53.625Z" fill="#FAC07B"/>
<path d="M71.5 53.625H62.5625V62.5625H71.5V53.625Z" fill="#FCA039"/>
<path d="M89.375 53.625H71.5V62.5625H89.375V53.625Z" fill="#F98D0C"/>
<path d="M107.25 53.625H98.3125V62.5625H107.25V53.625Z" fill="#0F8611"/>
<path d="M116.188 53.625H107.25V80.4375H116.188V53.625Z" fill="#1B9A1D"/>
<path d="M35.75 62.5625H26.8125V80.4375H35.75V62.5625Z" fill="#B03604"/>
<path d="M44.6875 62.5625H35.75V71.5H44.6875V62.5625Z" fill="#F98D0C"/>
<path d="M53.625 62.5625H44.6875V89.375H53.625V62.5625Z" fill="#FAC07B"/>
<path d="M71.5 62.5625H62.5625V71.5H71.5V62.5625Z" fill="#FAC07B"/>
<path d="M80.4375 62.5625H71.5V71.5H80.4375V62.5625Z" fill="#FCA039"/>
<path d="M89.375 62.5625H80.4375V71.5H89.375V62.5625Z" fill="#F98D0C"/>
<path d="M107.25 62.5625H98.3125V80.4375H107.25V62.5625Z" fill="#006802"/>
<path d="M44.6875 71.5H35.75V80.4375H44.6875V71.5Z" fill="#FAC07B"/>
<path d="M71.5 71.5H62.5625V80.4375H71.5V71.5Z" fill="#FCA039"/>
<path d="M80.4375 71.5H71.5V80.4375H80.4375V71.5Z" fill="#F98D0C"/>
<path d="M89.375 71.5H80.4375V80.4375H89.375V71.5Z" fill="#D46B08"/>
<path d="M26.8125 80.4375H17.875V98.3125H26.8125V80.4375Z" fill="#B03604"/>
<path d="M44.6875 80.4375H26.8125V89.375H44.6875V80.4375Z" fill="#FCA039"/>
<path d="M62.5625 80.4375H53.625V89.375H62.5625V80.4375Z" fill="#FCA039"/>
<path d="M71.5 80.4375H62.5625V89.375H71.5V80.4375Z" fill="#F98D0C"/>
<path d="M80.4375 80.4375H71.5V89.375H80.4375V80.4375Z" fill="#D46B08"/>
<path d="M89.375 80.4375H80.4375V89.375H89.375V80.4375Z" fill="#722608"/>
<path d="M116.188 80.4375H107.25V89.375H116.188V80.4375Z" fill="#006802"/>
<path d="M44.6875 89.375H26.8125V116.188H44.6875V89.375Z" fill="#F98D0C"/>
<path d="M53.625 89.375H44.6875V98.3125H53.625V89.375Z" fill="#FCA039"/>
<path d="M62.5625 89.375H53.625V98.3125H62.5625V89.375Z" fill="#F98D0C"/>
<path d="M71.5 89.375H62.5625V98.3125H71.5V89.375Z" fill="#D46B08"/>
<path d="M80.4375 89.375H71.5V98.3125H80.4375V89.375Z" fill="#722608"/>
<path d="M17.875 98.3125H8.9375V116.188H17.875V98.3125Z" fill="#B03604"/>
<path d="M26.8125 98.3125H17.875V125.125H26.8125V98.3125Z" fill="#F98D0C"/>
<path d="M53.625 98.3125H44.6875V107.25H53.625V98.3125Z" fill="#F98D0C"/>
<path d="M62.5625 98.3125H53.625V107.25H62.5625V98.3125Z" fill="#D46B08"/>
<path d="M71.5 98.3125H62.5625V107.25H71.5V98.3125Z" fill="#722608"/>
<path d="M53.625 107.25H44.6875V116.188H53.625V107.25Z" fill="#D46B08"/>
<path d="M62.5625 107.25H53.625V116.188H62.5625V107.25Z" fill="#722608"/>
<path d="M8.9375 116.188H0V134.062H8.9375V116.188Z" fill="#B03604"/>
<path d="M17.875 116.188H8.9375V125.125H17.875V116.188Z" fill="#D46B08"/>
<path d="M35.75 116.188H26.8125V125.125H35.75V116.188Z" fill="#F98D0C"/>
<path d="M44.6875 116.188H35.75V125.125H44.6875V116.188Z" fill="#D46B08"/>
<path d="M53.625 116.188H44.6875V125.125H53.625V116.188Z" fill="#722608"/>
<path d="M17.875 125.125H8.9375V134.062H17.875V125.125Z" fill="#F98D0C"/>
<path d="M26.8125 125.125H17.875V134.062H26.8125V125.125Z" fill="#D46B08"/>
<path d="M44.6875 125.125H26.8125V134.062H44.6875V125.125Z" fill="#722608"/>
<path d="M26.8125 134.062H0V143H26.8125V134.062Z" fill="#722608"/>
</svg>
