<svg width="230" height="230" viewBox="0 0 230 230" fill="none" xmlns="http://www.w3.org/2000/svg">
<path d="M221.547 0H8.20508V8.20545H221.547V0Z" fill="#7A181C"/>
<path d="M8.20545 8.20544H0V65.6436H8.20545V8.20544Z" fill="#7A181C"/>
<path d="M221.547 8.20544H8.20508V16.4109H221.547V8.20544Z" fill="#A92320"/>
<path d="M229.748 8.20544H221.543V65.6436H229.748V8.20544Z" fill="#7A181C"/>
<path d="M16.4105 16.4108H8.20508V57.438H16.4105V16.4108Z" fill="#A92320"/>
<path d="M32.8211 16.4108H16.4102V24.6162H32.8211V16.4108Z" fill="#951A17"/>
<path d="M41.0258 16.4108H32.8203V57.438H41.0258V16.4108Z" fill="#A92320"/>
<path d="M49.2308 16.4108H41.0254V24.6162H49.2308V16.4108Z" fill="#951A17"/>
<path d="M57.4359 16.4108H49.2305V24.6162H57.4359V16.4108Z" fill="#A92320"/>
<path d="M82.0538 16.4108H57.4375V24.6162H82.0538V16.4108Z" fill="#7A181C"/>
<path d="M98.4656 16.4108H82.0547V24.6162H98.4656V16.4108Z" fill="#A92320"/>
<path d="M131.287 16.4108H98.4648V24.6162H131.287V16.4108Z" fill="#951A17"/>
<path d="M147.696 16.4108H131.285V24.6162H147.696V16.4108Z" fill="#A92320"/>
<path d="M172.312 16.4108H147.695V24.6162H172.312V16.4108Z" fill="#7A181C"/>
<path d="M180.52 16.4108H172.314V24.6162H180.52V16.4108Z" fill="#A92320"/>
<path d="M188.727 16.4108H180.521V24.6162H188.727V16.4108Z" fill="#951A17"/>
<path d="M196.93 16.4108H188.725V57.438H196.93V16.4108Z" fill="#A92320"/>
<path d="M213.341 16.4108H196.93V24.6162H213.341V16.4108Z" fill="#951A17"/>
<path d="M221.547 16.4108H213.342V57.438H221.547V16.4108Z" fill="#A92320"/>
<path d="M24.6156 24.6163H16.4102V32.8218H24.6156V24.6163Z" fill="#951A17"/>
<path d="M32.8226 24.6163H24.6172V57.4381H32.8226V24.6163Z" fill="#A92320"/>
<path d="M49.2308 24.6163H41.0254V57.4381H49.2308V24.6163Z" fill="#A92320"/>
<path d="M57.4359 24.6163H49.2305V49.2327H57.4359V24.6163Z" fill="#7A181C"/>
<path d="M73.8484 24.6163H57.4375V32.8218H73.8484V24.6163Z" fill="#F9F6EA"/>
<path d="M82.0512 24.6163H73.8457V32.8218H82.0512V24.6163Z" fill="#F5F1DD"/>
<path d="M90.2601 24.6163H82.0547V49.2327H90.2601V24.6163Z" fill="#7A181C"/>
<path d="M139.491 24.6163H90.2578V57.4381H139.491V24.6163Z" fill="#A92320"/>
<path d="M147.698 24.6163H139.492V49.2327H147.698V24.6163Z" fill="#7A181C"/>
<path d="M164.106 24.6163H147.695V32.8218H164.106V24.6163Z" fill="#F9F6EA"/>
<path d="M172.313 24.6163H164.107V32.8218H172.313V24.6163Z" fill="#F5F1DD"/>
<path d="M180.52 24.6163H172.314V49.2327H180.52V24.6163Z" fill="#7A181C"/>
<path d="M188.727 24.6163H180.521V57.4381H188.727V24.6163Z" fill="#A92320"/>
<path d="M205.135 24.6163H196.93V57.4381H205.135V24.6163Z" fill="#A92320"/>
<path d="M213.34 24.6163H205.135V32.8218H213.34V24.6163Z" fill="#951A17"/>
<path d="M24.6156 32.8219H16.4102V41.0273H24.6156V32.8219Z" fill="#A92320"/>
<path d="M65.6429 32.8219H57.4375V41.0273H65.6429V32.8219Z" fill="#F9F6EA"/>
<path d="M73.85 32.8219H65.6445V41.0273H73.85V32.8219Z" fill="#F5F1DD"/>
<path d="M82.0512 32.8219H73.8457V49.2328H82.0512V32.8219Z" fill="#F5E1DD"/>
<path d="M155.901 32.8219H147.695V41.0273H155.901V32.8219Z" fill="#F9F6EA"/>
<path d="M164.108 32.8219H155.902V41.0273H164.108V32.8219Z" fill="#F5F1DD"/>
<path d="M172.313 32.8219H164.107V49.2328H172.313V32.8219Z" fill="#F5E1DD"/>
<path d="M213.34 32.8219H205.135V41.0273H213.34V32.8219Z" fill="#A92320"/>
<path d="M24.6156 41.0273H16.4102V49.2328H24.6156V41.0273Z" fill="#951A17"/>
<path d="M65.6429 41.0273H57.4375V49.2328H65.6429V41.0273Z" fill="#F5F1DD"/>
<path d="M73.85 41.0273H65.6445V49.2328H73.85V41.0273Z" fill="#F5E1DD"/>
<path d="M155.901 41.0273H147.695V49.2328H155.901V41.0273Z" fill="#F5F1DD"/>
<path d="M164.108 41.0273H155.902V49.2328H164.108V41.0273Z" fill="#F5E1DD"/>
<path d="M213.34 41.0273H205.135V49.2328H213.34V41.0273Z" fill="#951A17"/>
<path d="M24.6156 49.2328H16.4102V57.4382H24.6156V49.2328Z" fill="#A92320"/>
<path d="M57.4359 49.2328H49.2305V57.4382H57.4359V49.2328Z" fill="#A61111"/>
<path d="M82.0538 49.2328H57.4375V57.4382H82.0538V49.2328Z" fill="#7A181C"/>
<path d="M90.2601 49.2328H82.0547V57.4382H90.2601V49.2328Z" fill="#A61111"/>
<path d="M147.698 49.2328H139.492V57.4382H147.698V49.2328Z" fill="#A61111"/>
<path d="M172.312 49.2328H147.695V57.4382H172.312V49.2328Z" fill="#7A181C"/>
<path d="M180.52 49.2328H172.314V57.4382H180.52V49.2328Z" fill="#A61111"/>
<path d="M213.34 49.2328H205.135V57.4382H213.34V49.2328Z" fill="#A92320"/>
<path d="M221.547 57.4381H8.20508V65.6436H221.547V57.4381Z" fill="#CD3431"/>
<path d="M16.4109 65.6437H0V73.8491H16.4109V65.6437Z" fill="#680C10"/>
<path d="M24.6156 65.6437H16.4102V73.8491H24.6156V65.6437Z" fill="#731115"/>
<path d="M32.8226 65.6437H24.6172V73.8491H32.8226V65.6437Z" fill="#680C10"/>
<path d="M49.2312 65.6437H32.8203V73.8491H49.2312V65.6437Z" fill="#731115"/>
<path d="M65.6414 65.6437H49.2305V73.8491H65.6414V65.6437Z" fill="#951737"/>
<path d="M82.0554 65.6437H65.6445V73.8491H82.0554V65.6437Z" fill="#86161A"/>
<path d="M155.904 65.6437H82.0547V73.8491H155.904V65.6437Z" fill="#951737"/>
<path d="M164.108 65.6437H155.902V73.8491H164.108V65.6437Z" fill="#86161A"/>
<path d="M188.724 65.6437H164.107V73.8491H188.724V65.6437Z" fill="#731115"/>
<path d="M196.93 65.6437H188.725V73.8491H196.93V65.6437Z" fill="#680C10"/>
<path d="M205.135 65.6437H196.93V73.8491H205.135V65.6437Z" fill="#731115"/>
<path d="M229.751 65.6437H205.135V73.8491H229.751V65.6437Z" fill="#680C10"/>
<path d="M8.20545 73.849H0V82.0544H8.20545V73.849Z" fill="#825E55"/>
<path d="M24.616 73.849H8.20508V82.0544H24.616V73.849Z" fill="#ECCEBA"/>
<path d="M180.521 73.849H24.6172V82.0544H180.521V73.849Z" fill="#EED9CB"/>
<path d="M188.727 73.849H180.521V82.0544H188.727V73.849Z" fill="#ECCEBA"/>
<path d="M196.93 73.849H188.725V82.0544H196.93V73.849Z" fill="#EED9CB"/>
<path d="M221.546 73.849H196.93V82.0544H221.546V73.849Z" fill="#ECCEBA"/>
<path d="M229.748 73.849H221.543V82.0544H229.748V73.849Z" fill="#825E55"/>
<path d="M8.20545 82.0543H0V90.2598H8.20545V82.0543Z" fill="#866C5C"/>
<path d="M221.547 82.0543H8.20508V90.2598H221.547V82.0543Z" fill="#F5F1DD"/>
<path d="M229.748 82.0543H221.543V90.2598H229.748V82.0543Z" fill="#866C5C"/>
<path d="M8.20545 90.26H0V188.725H8.20545V90.26Z" fill="#A98E7E"/>
<path d="M16.4105 90.26H8.20508V221.547H16.4105V90.26Z" fill="#F5F1DD"/>
<path d="M24.6156 90.26H16.4102V123.082H24.6156V90.26Z" fill="#563830"/>
<path d="M32.8226 90.26H24.6172V98.4655H32.8226V90.26Z" fill="#F5F1DD"/>
<path d="M49.2312 90.26H32.8203V114.876H49.2312V90.26Z" fill="#FBF9EE"/>
<path d="M57.4359 90.26H49.2305V98.4655H57.4359V90.26Z" fill="#D8BCA8"/>
<path d="M82.0538 90.26H57.4375V106.671H82.0538V90.26Z" fill="#FBF9EE"/>
<path d="M90.2601 90.26H82.0547V98.4655H90.2601V90.26Z" fill="#E9D4C6"/>
<path d="M205.134 90.26H90.2578V98.4655H205.134V90.26Z" fill="#FBF9EE"/>
<path d="M213.34 90.26H205.135V98.4655H213.34V90.26Z" fill="#D8BCA8"/>
<path d="M221.547 90.26H213.342V180.52H221.547V90.26Z" fill="#F5F1DD"/>
<path d="M229.748 90.26H221.543V98.4655H229.748V90.26Z" fill="#A98E7E"/>
<path d="M32.8226 98.4655H24.6172V114.876H32.8226V98.4655Z" fill="#FBF9EE"/>
<path d="M57.4359 98.4655H49.2305V114.876H57.4359V98.4655Z" fill="#563830"/>
<path d="M90.2601 98.4655H82.0547V106.671H90.2601V98.4655Z" fill="#563830"/>
<path d="M123.08 98.4655H90.2578V114.876H123.08V98.4655Z" fill="#FBF9EE"/>
<path d="M131.287 98.4655H123.082V106.671H131.287V98.4655Z" fill="#563830"/>
<path d="M164.107 98.4655H131.285V106.671H164.107V98.4655Z" fill="#FBF9EE"/>
<path d="M172.313 98.4655H164.107V114.876H172.313V98.4655Z" fill="#563830"/>
<path d="M205.136 98.4655H172.314V114.876H205.136V98.4655Z" fill="#FBF9EE"/>
<path d="M213.34 98.4655H205.135V114.876H213.34V98.4655Z" fill="#563830"/>
<path d="M229.748 98.4655H221.543V106.671H229.748V98.4655Z" fill="#866C5C"/>
<path d="M82.0538 106.671H57.4375V114.876H82.0538V106.671Z" fill="white"/>
<path d="M90.2601 106.671H82.0547V123.082H90.2601V106.671Z" fill="#432921"/>
<path d="M131.287 106.671H123.082V123.082H131.287V106.671Z" fill="#432921"/>
<path d="M164.107 106.671H131.285V114.876H164.107V106.671Z" fill="white"/>
<path d="M229.748 106.671H221.543V180.52H229.748V106.671Z" fill="#A98E7E"/>
<path d="M49.2335 114.876H24.6172V123.082H49.2335V114.876Z" fill="white"/>
<path d="M82.0523 114.876H49.2305V123.082H82.0523V114.876Z" fill="#432921"/>
<path d="M123.08 114.876H90.2578V123.082H123.08V114.876Z" fill="white"/>
<path d="M172.312 114.876H131.285V123.082H172.312V114.876Z" fill="#432921"/>
<path d="M205.136 114.876H172.314V123.082H205.136V114.876Z" fill="white"/>
<path d="M213.34 114.876H205.135V123.082H213.34V114.876Z" fill="#432921"/>
<path d="M24.6156 123.082H16.4102V131.287H24.6156V123.082Z" fill="#F5F1DD"/>
<path d="M49.2335 123.082H24.6172V131.287H49.2335V123.082Z" fill="#563830"/>
<path d="M90.2577 123.082H49.2305V131.287H90.2577V123.082Z" fill="#AD896E"/>
<path d="M123.08 123.082H90.2578V131.287H123.08V123.082Z" fill="#563830"/>
<path d="M172.315 123.082H123.082V131.287H172.315V123.082Z" fill="#AD896E"/>
<path d="M180.52 123.082H172.314V131.287H180.52V123.082Z" fill="#432921"/>
<path d="M196.932 123.082H180.521V131.287H196.932V123.082Z" fill="#563830"/>
<path d="M205.135 123.082H196.93V131.287H205.135V123.082Z" fill="#432921"/>
<path d="M213.34 123.082H205.135V131.287H213.34V123.082Z" fill="#D8BCA8"/>
<path d="M24.6156 131.287H16.4102V188.725H24.6156V131.287Z" fill="#E9D4C6"/>
<path d="M32.8226 131.287H24.6172V180.52H32.8226V131.287Z" fill="#F5F1DD"/>
<path d="M41.0258 131.287H32.8203V139.493H41.0258V131.287Z" fill="#36201A"/>
<path d="M49.2308 131.287H41.0254V139.493H49.2308V131.287Z" fill="#AD896E"/>
<path d="M180.518 131.287H49.2305V139.493H180.518V131.287Z" fill="#CFAA8E"/>
<path d="M188.727 131.287H180.521V139.493H188.727V131.287Z" fill="#AD896E"/>
<path d="M196.93 131.287H188.725V147.698H196.93V131.287Z" fill="#432921"/>
<path d="M205.135 131.287H196.93V180.52H205.135V131.287Z" fill="#F5F1DD"/>
<path d="M213.34 131.287H205.135V180.52H213.34V131.287Z" fill="#E9D4C6"/>
<path d="M41.0258 139.493H32.8203V147.698H41.0258V139.493Z" fill="#432921"/>
<path d="M49.2308 139.493H41.0254V180.52H49.2308V139.493Z" fill="#CFAA8E"/>
<path d="M180.518 139.493H49.2305V180.52H180.518V139.493Z" fill="#D8BCA8"/>
<path d="M188.727 139.493H180.521V180.52H188.727V139.493Z" fill="#CFAA8E"/>
<path d="M41.0258 147.698H32.8203V164.109H41.0258V147.698Z" fill="#563830"/>
<path d="M196.93 147.698H188.725V164.109H196.93V147.698Z" fill="#563830"/>
<path d="M41.0258 164.109H32.8203V172.314H41.0258V164.109Z" fill="#432921"/>
<path d="M196.93 164.109H188.725V172.314H196.93V164.109Z" fill="#432921"/>
<path d="M41.0258 172.314H32.8203V180.52H41.0258V172.314Z" fill="#36201A"/>
<path d="M196.93 172.314H188.725V180.52H196.93V172.314Z" fill="#36201A"/>
<path d="M49.2335 180.52H24.6172V188.725H49.2335V180.52Z" fill="#5F423A"/>
<path d="M90.2577 180.52H49.2305V188.725H90.2577V180.52Z" fill="#CFAA8E"/>
<path d="M123.08 180.52H90.2578V188.725H123.08V180.52Z" fill="#5F423A"/>
<path d="M172.315 180.52H123.082V188.725H172.315V180.52Z" fill="#CFAA8E"/>
<path d="M188.725 180.52H172.314V188.725H188.725V180.52Z" fill="#5F423A"/>
<path d="M196.93 180.52H188.725V188.725H196.93V180.52Z" fill="#AD896E"/>
<path d="M221.546 180.52H196.93V188.725H221.546V180.52Z" fill="#A98E7E"/>
<path d="M229.748 180.52H221.543V188.725H229.748V180.52Z" fill="#866C5C"/>
<path d="M8.20545 188.725H0V196.931H8.20545V188.725Z" fill="#866C5C"/>
<path d="M24.6156 188.725H16.4102V196.931H24.6156V188.725Z" fill="#5F423A"/>
<path d="M49.2335 188.725H24.6172V213.342H49.2335V188.725Z" fill="#FBF9EE"/>
<path d="M73.8468 188.725H49.2305V196.931H73.8468V188.725Z" fill="#5F423A"/>
<path d="M82.0512 188.725H73.8457V196.931H82.0512V188.725Z" fill="#52372F"/>
<path d="M90.2601 188.725H82.0547V205.136H90.2601V188.725Z" fill="#5F423A"/>
<path d="M123.08 188.725H90.2578V196.931H123.08V188.725Z" fill="white"/>
<path d="M131.287 188.725H123.082V205.136H131.287V188.725Z" fill="#52372F"/>
<path d="M164.107 188.725H131.285V196.931H164.107V188.725Z" fill="#5F423A"/>
<path d="M172.313 188.725H164.107V205.136H172.313V188.725Z" fill="#52372F"/>
<path d="M188.725 188.725H172.314V196.931H188.725V188.725Z" fill="#FBF9EE"/>
<path d="M196.93 188.725H188.725V196.931H196.93V188.725Z" fill="#A98E7E"/>
<path d="M213.341 188.725H196.93V196.931H213.341V188.725Z" fill="#F5F1DD"/>
<path d="M221.547 188.725H213.342V196.931H221.547V188.725Z" fill="#866C5C"/>
<path d="M229.748 188.725H221.543V196.931H229.748V188.725Z" fill="#755A4A"/>
<path d="M8.20545 196.931H0V205.136H8.20545V196.931Z" fill="#A98E7E"/>
<path d="M24.6156 196.931H16.4102V205.136H24.6156V196.931Z" fill="#52372F"/>
<path d="M57.4359 196.931H49.2305V205.136H57.4359V196.931Z" fill="#52372F"/>
<path d="M82.0538 196.931H57.4375V205.136H82.0538V196.931Z" fill="white"/>
<path d="M123.08 196.931H90.2578V205.136H123.08V196.931Z" fill="#FBF9EE"/>
<path d="M164.107 196.931H131.285V205.136H164.107V196.931Z" fill="#FBF9EE"/>
<path d="M180.52 196.931H172.314V205.136H180.52V196.931Z" fill="#FBF9EE"/>
<path d="M188.727 196.931H180.521V221.547H188.727V196.931Z" fill="#A98E7E"/>
<path d="M205.136 196.931H188.725V205.136H205.136V196.931Z" fill="#F5F1DD"/>
<path d="M213.34 196.931H205.135V205.136H213.34V196.931Z" fill="#866C5C"/>
<path d="M221.547 196.931H213.342V205.136H221.547V196.931Z" fill="#EED9CB"/>
<path d="M229.748 196.931H221.543V205.136H229.748V196.931Z" fill="#866C5C"/>
<path d="M8.20545 205.136H0V229.753H8.20545V205.136Z" fill="#866C5C"/>
<path d="M24.6156 205.136H16.4102V213.342H24.6156V205.136Z" fill="#432921"/>
<path d="M57.4359 205.136H49.2305V213.342H57.4359V205.136Z" fill="#432921"/>
<path d="M65.6429 205.136H57.4375V213.342H65.6429V205.136Z" fill="#FBF9EE"/>
<path d="M82.0554 205.136H65.6445V221.547H82.0554V205.136Z" fill="#F5F1DD"/>
<path d="M90.2601 205.136H82.0547V213.342H90.2601V205.136Z" fill="#432921"/>
<path d="M98.4633 205.136H90.2578V213.342H98.4633V205.136Z" fill="#D8BCA8"/>
<path d="M123.081 205.136H98.4648V213.342H123.081V205.136Z" fill="#E9D4C6"/>
<path d="M131.287 205.136H123.082V213.342H131.287V205.136Z" fill="#432921"/>
<path d="M164.107 205.136H131.285V213.342H164.107V205.136Z" fill="#E9D4C6"/>
<path d="M172.313 205.136H164.107V213.342H172.313V205.136Z" fill="#432921"/>
<path d="M180.52 205.136H172.314V213.342H180.52V205.136Z" fill="#E9D4C6"/>
<path d="M196.93 205.136H188.725V213.342H196.93V205.136Z" fill="#F5F1DD"/>
<path d="M205.135 205.136H196.93V213.342H205.135V205.136Z" fill="#866C5C"/>
<path d="M213.34 205.136H205.135V213.342H213.34V205.136Z" fill="#EED9CB"/>
<path d="M221.547 205.136H213.342V221.547H221.547V205.136Z" fill="#F5F1DD"/>
<path d="M229.748 205.136H221.543V229.753H229.748V205.136Z" fill="#A98E7E"/>
<path d="M65.6429 213.342H16.4102V221.547H65.6429V213.342Z" fill="#F5F1DD"/>
<path d="M180.52 213.342H82.0547V221.547H180.52V213.342Z" fill="#F5F1DD"/>
<path d="M196.93 213.342H188.725V221.547H196.93V213.342Z" fill="#866C5C"/>
<path d="M205.135 213.342H196.93V221.547H205.135V213.342Z" fill="#EED9CB"/>
<path d="M213.34 213.342H205.135V221.547H213.34V213.342Z" fill="#F5F1DD"/>
<path d="M16.4105 221.547H8.20508V229.753H16.4105V221.547Z" fill="#866C5C"/>
<path d="M24.6156 221.547H16.4102V229.753H24.6156V221.547Z" fill="#A98E7E"/>
<path d="M32.8226 221.547H24.6172V229.753H32.8226V221.547Z" fill="#866C5C"/>
<path d="M172.313 221.547H32.8203V229.753H172.313V221.547Z" fill="#A98E7E"/>
<path d="M180.52 221.547H172.314V229.753H180.52V221.547Z" fill="#866C5C"/>
<path d="M188.727 221.547H180.521V229.753H188.727V221.547Z" fill="#755A4A"/>
<path d="M221.546 221.547H188.725V229.753H221.546V221.547Z" fill="#A98E7E"/>
<path d="M140.832 156.58V152.261H144.862V156.58H140.832ZM144.862 156.58H148.893V160.898H144.862V156.58ZM144.862 152.261V147.942H148.893V152.261H144.862ZM148.893 160.898H152.924V165.217H148.893V160.898ZM148.893 147.942V143.624H152.924V147.942H148.893ZM152.924 165.217H156.955V169.536H152.924V165.217ZM152.924 143.624V139.305H156.955V143.624H152.924Z" fill="#8B6E67"/>
<path d="M60.2168 181.628V175.582H66.2629V181.628H60.2168ZM60.2168 145.351V139.305H66.2629V145.351H60.2168ZM66.2629 175.582V169.536H72.309V175.582H66.2629ZM66.2629 145.351H72.309V151.397H66.2629V145.351ZM72.309 169.536V163.49H78.3552V169.536H72.309ZM72.309 151.397H78.3552V157.444H72.309V151.397ZM78.3552 163.49V157.444H84.4013V163.49H78.3552Z" fill="#8B6E67"/>
<path d="M161.23 135.03H157.199L152.924 139.305H156.955L161.23 135.03Z" fill="#8B6E67"/>
<path d="M161.228 139.349V135.03L156.953 139.305V143.624L161.228 139.349Z" fill="#8B6E67"/>
<path d="M157.199 135.03V139.349L152.924 143.624V139.305L157.199 135.03Z" fill="#8B6E67"/>
<path d="M157.199 139.349H161.23L156.955 143.624H152.924L157.199 139.349Z" fill="#8B6E67"/>
<path d="M157.199 139.349H153.168L148.893 143.624H152.923L157.199 139.349Z" fill="#8B6E67"/>
<path d="M157.199 143.667V139.349L152.924 143.624V147.943L157.199 143.667Z" fill="#8B6E67"/>
<path d="M153.168 139.349V143.667L148.893 147.943V143.624L153.168 139.349Z" fill="#8B6E67"/>
<path d="M153.168 143.667H157.199L152.923 147.942H148.893L153.168 143.667Z" fill="#8B6E67"/>
<path d="M153.169 143.667H149.139L144.863 147.942H148.894L153.169 143.667Z" fill="#8B6E67"/>
<path d="M153.168 147.986V143.667L148.893 147.942V152.261L153.168 147.986Z" fill="#8B6E67"/>
<path d="M149.139 143.667V147.986L144.863 152.261V147.942L149.139 143.667Z" fill="#8B6E67"/>
<path d="M149.139 147.986H153.169L148.894 152.261H144.863L149.139 147.986Z" fill="#8B6E67"/>
<path d="M149.136 147.986H145.105L140.83 152.261H144.861L149.136 147.986Z" fill="#8B6E67"/>
<path d="M149.139 152.304V147.986L144.863 152.261V156.58L149.139 152.304Z" fill="#8B6E67"/>
<path d="M153.169 152.305H149.139L144.863 156.58H148.894L153.169 152.305Z" fill="#8B6E67"/>
<path d="M153.168 156.623V152.305L148.893 156.58V160.899L153.168 156.623Z" fill="#8B6E67"/>
<path d="M157.199 156.624H153.168L148.893 160.899H152.923L157.199 156.624Z" fill="#8B6E67"/>
<path d="M157.199 160.942V156.624L152.924 160.899V165.217L157.199 160.942Z" fill="#8B6E67"/>
<path d="M161.23 160.942H157.199L152.924 165.217H156.955L161.23 160.942Z" fill="#8B6E67"/>
<path d="M161.228 165.261V160.942L156.953 165.217V169.536L161.228 165.261Z" fill="#8B6E67"/>
<path d="M145.105 147.986V152.304L140.83 156.58V152.261L145.105 147.986Z" fill="#8B6E67"/>
<path d="M145.105 152.305H149.136L144.861 156.58H140.83L145.105 152.305Z" fill="#8B6E67"/>
<path d="M149.139 152.305V156.623L144.863 160.899V156.58L149.139 152.305Z" fill="#8B6E67"/>
<path d="M149.139 156.624H153.169L148.894 160.899H144.863L149.139 156.624Z" fill="#8B6E67"/>
<path d="M153.168 156.624V160.942L148.893 165.217V160.899L153.168 156.624Z" fill="#8B6E67"/>
<path d="M153.168 160.942H157.199L152.923 165.217H148.893L153.168 160.942Z" fill="#8B6E67"/>
<path d="M157.199 160.942V165.261L152.924 169.536V165.217L157.199 160.942Z" fill="#8B6E67"/>
<path d="M157.199 165.261H161.23L156.955 169.536H152.924L157.199 165.261Z" fill="#8B6E67"/>
<path d="M70.5382 135.03H64.492L60.2168 139.305H66.2629L70.5382 135.03Z" fill="#8B6E67"/>
<path d="M70.5389 141.076V135.03L66.2637 139.305V145.352L70.5389 141.076Z" fill="#8B6E67"/>
<path d="M76.585 141.076H70.5389L66.2637 145.351H72.3098L76.585 141.076Z" fill="#8B6E67"/>
<path d="M82.6288 153.168V147.122L78.3535 151.398V157.444L82.6288 153.168Z" fill="#8B6E67"/>
<path d="M76.5819 147.122V141.076L72.3066 145.351V151.398L76.5819 147.122Z" fill="#8B6E67"/>
<path d="M82.628 147.122H76.5819L72.3066 151.398H78.3528L82.628 147.122Z" fill="#8B6E67"/>
<path d="M88.6749 153.168H82.6288L78.3535 157.444H84.3996L88.6749 153.168Z" fill="#8B6E67"/>
<path d="M88.6776 159.214V153.168L84.4023 157.444V163.49L88.6776 159.214Z" fill="#8B6E67"/>
<path d="M64.492 135.03V141.076L60.2168 145.352V139.305L64.492 135.03Z" fill="#8B6E67"/>
<path d="M64.492 141.076H70.5382L66.2629 145.351H60.2168L64.492 141.076Z" fill="#8B6E67"/>
<path d="M70.5389 147.122H76.585L72.3098 151.398H66.2637L70.5389 147.122Z" fill="#8B6E67"/>
<path d="M70.5389 141.076V147.122L66.2637 151.398V145.351L70.5389 141.076Z" fill="#8B6E67"/>
<path d="M76.5819 147.122V153.168L72.3066 157.444V151.398L76.5819 147.122Z" fill="#8B6E67"/>
<path d="M82.6288 153.168V159.214L78.3535 163.49V157.444L82.6288 153.168Z" fill="#8B6E67"/>
<path d="M76.5819 153.168H82.628L78.3528 157.444H72.3066L76.5819 153.168Z" fill="#8B6E67"/>
<path d="M82.6288 159.215H88.6749L84.3996 163.49H78.3535L82.6288 159.215Z" fill="#8B6E67"/>
<path d="M82.6288 165.261V159.215L78.3535 163.49V169.536L82.6288 165.261Z" fill="#8B6E67"/>
<path d="M82.628 159.215H76.5819L72.3066 163.49H78.3528L82.628 159.215Z" fill="#8B6E67"/>
<path d="M76.5819 159.215V165.261L72.3066 169.536V163.49L76.5819 159.215Z" fill="#8B6E67"/>
<path d="M76.5819 165.261H82.628L78.3528 169.536H72.3066L76.5819 165.261Z" fill="#8B6E67"/>
<path d="M76.585 165.261H70.5389L66.2637 169.536H72.3098L76.585 165.261Z" fill="#8B6E67"/>
<path d="M76.5819 171.307V165.261L72.3066 169.536V175.582L76.5819 171.307Z" fill="#8B6E67"/>
<path d="M70.5389 165.261V171.307L66.2637 175.582V169.536L70.5389 165.261Z" fill="#8B6E67"/>
<path d="M70.5389 171.307H76.585L72.3098 175.582H66.2637L70.5389 171.307Z" fill="#8B6E67"/>
<path d="M70.5382 171.307H64.492L60.2168 175.582H66.2629L70.5382 171.307Z" fill="#8B6E67"/>
<path d="M70.5389 177.353V171.307L66.2637 175.582V181.628L70.5389 177.353Z" fill="#8B6E67"/>
<path d="M64.492 171.307V177.353L60.2168 181.628V175.582L64.492 171.307Z" fill="#8B6E67"/>
<path d="M64.492 177.353H70.5382L66.2629 181.628H60.2168L64.492 177.353Z" fill="#8B6E67"/>
<path d="M145.105 152.305V147.986H149.136V152.305H145.105ZM149.136 152.305H153.167V156.623H149.136V152.305ZM149.136 147.986V143.667H153.167V147.986H149.136ZM153.167 156.623H157.198V160.942H153.167V156.623ZM153.167 143.667V139.349H157.198V143.667H153.167ZM157.198 160.942H161.228V165.261H157.198V160.942ZM157.198 139.349V135.03H161.228V139.349H157.198Z" fill="#5F423A"/>
<path d="M64.4922 177.353V171.307H70.5383V177.353H64.4922ZM64.4922 141.076V135.03H70.5383V141.076H64.4922ZM70.5383 171.307V165.261H76.5844V171.307H70.5383ZM70.5383 141.076H76.5844V147.122H70.5383V141.076ZM76.5844 165.261V159.215H82.6305V165.261H76.5844ZM76.5844 147.122H82.6305V153.169H76.5844V147.122ZM82.6305 159.215V153.169H88.6767V159.215H82.6305Z" fill="#5F423A"/>
</svg>
